<?xml version="1.0" encoding="UTF-8" standalone="no"?>
<svg
   xmlns:dc="http://purl.org/dc/elements/1.1/"
   xmlns:cc="http://creativecommons.org/ns#"
   xmlns:rdf="http://www.w3.org/1999/02/22-rdf-syntax-ns#"
   xmlns:svg="http://www.w3.org/2000/svg"
   xmlns="http://www.w3.org/2000/svg"
   xmlns:sodipodi="http://sodipodi.sourceforge.net/DTD/sodipodi-0.dtd"
   xmlns:inkscape="http://www.inkscape.org/namespaces/inkscape"
   viewBox="0 0 174.8589 284.24799"
   height="284.24799"
   width="174.8589"
   xml:space="preserve"
   id="svg2"
   version="1.1"
   sodipodi:docname="HACP_ACBA_lineSPC-rco_01_R_ad-0.svg"
   inkscape:version="0.92.3 (2405546, 2018-03-11)"><sodipodi:namedview
     pagecolor="#ffffff"
     bordercolor="#666666"
     borderopacity="1"
     objecttolerance="10"
     gridtolerance="10"
     guidetolerance="10"
     inkscape:pageopacity="0"
     inkscape:pageshadow="2"
     inkscape:window-width="713"
     inkscape:window-height="513"
     id="namedview28"
     showgrid="false"
     inkscape:zoom="0.20607803"
     inkscape:cx="87.429432"
     inkscape:cy="117.22935"
     inkscape:window-x="0"
     inkscape:window-y="0"
     inkscape:window-maximized="0"
     inkscape:current-layer="svg2" /><metadata
     id="metadata8"><rdf:RDF><cc:Work
         rdf:about=""><dc:format>image/svg+xml</dc:format><dc:type
           rdf:resource="http://purl.org/dc/dcmitype/StillImage" /></cc:Work></rdf:RDF></metadata><defs
     id="defs6"><clipPath
       id="clipPath14"
       clipPathUnits="userSpaceOnUse"><path
         id="path12"
         d="M 0,0 H 612.29 V 858.9 H 0 Z"
         inkscape:connector-curvature="0" /></clipPath></defs><g
     clip-path="url(#clipPath14)"
     transform="matrix(1.3333333,0,0,-1.3333333,-320.76255,739.61729)"
     id="g10"><g
       transform="scale(0.1)"
       id="g16"><path
         id="path18"
         style="fill:#8a4d41;fill-opacity:1;fill-rule:nonzero;stroke:none"
         d="m 3425.02,4317.87 c 0.27,-0.14 0.55,-0.26 0.82,-0.42 8.6,-4.02 18.77,-7.11 31.66,-7.97 41.76,-2.84 58.89,5.77 96.2,36.86 37.83,30.94 62.51,58.94 78.78,79.41 -31.32,7.91 -55.48,24 -70.33,47.13 -8.62,13.41 -13.99,29.48 -15.69,45.6 -20.15,-14.86 -39.77,-31.52 -56.11,-45.48 l -2.71,-2.32 c -0.07,-0.06 -0.14,-0.11 -0.21,-0.18 -12.19,-10.38 -20.71,-17.57 -27.91,-22.7 -6.75,-4.82 -16.11,-3.26 -20.93,3.49 -1.84,2.58 -2.75,5.55 -2.79,8.5 -5.04,-5.83 -10.08,-13.38 -14.62,-22.67 -17.47,-36.05 -30.24,-78.89 -32.25,-96.66 5.09,-2.66 9.95,-6.07 14.96,-9.58 6.3,-4.43 13.03,-9.13 21.13,-13.01 m -50.47,-43.84 c -13.86,21.79 -33.98,54.4 -70.13,106.17 -4.74,6.78 -10.86,18.85 -6.29,22.17 5.65,3.95 16.36,-4.91 23.43,-11.03 3.17,46.37 21.16,99.37 42.25,127.14 -60.47,21.22 -88.86,24.86 -110.19,25.41 -8.34,-2.55 -16.84,-5.05 -25.51,-7.46 7.07,-15.38 24.56,-42.48 54.04,-79.13 3.97,-4.93 4.41,-11.84 1.09,-17.23 -3.31,-5.41 -9.66,-8.16 -15.86,-6.84 -0.83,0.16 -63.82,13.41 -119.74,26.7 7.02,-8.09 13.7,-16.09 18.56,-22.43 3.36,-4.38 4.04,-10.27 1.76,-15.3 -2.28,-5.04 -7.14,-8.42 -12.66,-8.79 -9.73,-0.66 -55.98,-19.73 -104.6,-43.37 3.99,-95.95 22.29,-204.54 34.61,-277.59 l 4.02,-23.93 c 2.15,-12.93 4.61,-27.29 7.24,-42.72 9.72,-56.78 22.38,-130.73 30.29,-198.07 107.75,12.43 286.28,43.29 347.51,114.52 -5.69,33 -14.67,72.66 -26.15,115.14 l -0.03,0.09 v 0.02 c -12.72,47.16 -27.9,95.5 -41.66,132.7 -24.78,66.82 -30.78,81.12 -31.98,83.83 m 59.02,-574.23 c 5.27,57.7 9.2,111.77 10.55,143.15 -41.33,-20.36 -91.33,-36.29 -202.52,-58.95 -31.88,-6.52 -62.76,-11.3 -93.14,-14.75 1,-22.11 -0.08,-52.09 -6.35,-61.5 -6.03,-9.04 -33.17,-14.93 -54.97,-14.93 -3.76,0 -7.33,0.2 -10.64,0.56 5.07,-9.58 10.83,-19.9 17.09,-30.74 0.25,-0.3 0.54,-0.57 0.78,-0.89 0.54,-0.77 0.78,-1.66 1.16,-2.48 0.07,-0.13 0.13,-0.25 0.2,-0.36 30.71,2.2 97.85,12.52 167.32,33.21 2.66,0.77 5.44,-0.73 6.22,-3.37 0.78,-2.66 -0.72,-5.43 -3.37,-6.23 -49.82,-14.84 -98.6,-24.4 -133.89,-29.52 l -0.25,-1.72 c -1.1,-7.53 -2.15,-14.85 -3.88,-21.8 14.85,-11.52 47.94,-20.39 140.89,-23.09 96.21,-2.82 136.61,9.56 157.77,24.79 2.12,18.45 4.52,41.84 7.03,68.62 m -8.55,-81.42 c -21.89,-12.65 -59.03,-22.38 -130.63,-22.38 -8.18,0 -16.8,0.13 -25.91,0.39 -89.5,2.61 -125.96,11.11 -143.8,22.93 -1.29,-3.27 -2.83,-6.43 -4.72,-9.44 -0.1,-6.22 8.38,-23.29 19.09,-29.31 53.06,-26.36 189.44,-48.34 260.6,-22.86 7.11,2.56 14.49,5.22 21.08,32.25 1.07,4.33 2.54,14.24 4.29,28.42 M 3277.2,3517.93 c -46.51,3.78 -92.39,13.53 -126,25.32 -1.58,-13.79 -2.92,-27.25 -3.73,-39.82 -0.08,-1.18 -0.11,-2.25 -0.17,-3.39 20.3,-12.13 71.92,-19.88 123.13,-14.49 -0.92,10.91 2.49,22.56 6.77,32.38 m -192.81,140.57 c -1.85,3.21 -3.49,6.2 -5.24,9.29 h 0.01 c -21.49,38.17 -35.14,67.87 -43.47,94.58 -4.52,-0.05 -9.04,-0.14 -13.57,-0.14 -58.85,0 -117.96,4.11 -180.71,10.36 -33.52,4.07 -59.82,9.46 -82.06,16.87 7.07,-27.78 11.58,-55.28 7.4,-78.89 l -2.11,-12.27 c -1.78,-10.52 -3.54,-20.8 -5.54,-30.26 9.82,-13.9 28.59,-27.31 80.63,-42.56 66.34,-19.43 152.71,-24.84 210.65,-14.19 2.88,7.87 5.34,15.55 7.46,22.23 1.83,5.78 3.37,10.55 4.85,14.62 -2.9,-0.01 -5.75,-0.03 -8.51,-0.03 -47.91,0 -76.97,4.16 -142.37,23.53 -2.65,0.79 -4.16,3.57 -3.38,6.22 0.79,2.64 3.58,4.12 6.21,3.37 69.73,-20.66 97.57,-23.68 152.53,-23.02 5.47,0.08 11.13,0.17 17.22,0.29 m -38.25,-58.09 c -18.71,-2.98 -39.88,-4.48 -62.23,-4.48 -48.49,0 -102.26,6.87 -146.99,19.96 -46.61,13.66 -68.15,25.84 -80.75,39.89 -2.57,-9.66 -5.59,-18.03 -9.54,-24.12 -3.16,-6.34 -4.34,-9.98 6.65,-19.43 8.12,-6.3 21.92,-13.16 39.12,-19.91 0.12,-0.03 0.25,-0.02 0.37,-0.07 1.12,-0.29 2.16,-0.75 3.14,-1.27 53.87,-20.53 138.73,-39.57 194.71,-37.96 2.04,0.21 4.02,0.39 5.97,0.55 15.72,1.39 23.61,2.09 38.03,24.32 4.43,6.82 8.21,14.59 11.52,22.52 m -117.38,-73.12 c -43.32,5.89 -91.01,17.28 -129.83,30.8 -1.55,-5.61 -3.05,-11.02 -4.47,-16.13 -4.01,-14.42 -7.45,-26.84 -10.26,-37.41 -0.17,-0.64 -0.32,-1.23 -0.48,-1.85 22.35,-12.91 76.91,-23.15 136.95,-5.24 0.31,1.22 0.6,2.4 0.91,3.61 2.5,9.5 5.09,18.81 7.18,26.22 m -200.94,310.09 c 27.22,-18.04 61.1,-28.17 116.89,-34.99 49.78,-4.96 97.23,-8.52 144.09,-9.73 -0.46,5.16 -1.09,11.22 -1.86,18.02 -7.96,0.36 -16.39,0.66 -25.28,0.96 -79.1,2.74 -184.43,6.56 -251.23,58.75 1.49,-12.62 5.15,-24.84 17.39,-33.01 m -18.5,46.67 c 63.52,-55.85 172.08,-59.64 252.68,-62.41 8.33,-0.28 16.25,-0.57 23.79,-0.89 -6.87,58.13 -21.01,155.86 -28.11,204.91 l -2.29,15.93 c -8.62,59.71 -22.43,224.82 -22.96,288.44 -0.01,1.1 0.11,2.17 0.33,3.2 0.02,0.09 0.07,0.18 0.09,0.29 0.35,1.53 0.95,2.96 1.74,4.28 0.04,0.09 0.05,0.18 0.1,0.27 1.5,2.41 8.61,13.71 17.68,26.5 -33.99,5.64 -88.65,14.38 -107.94,15.88 -5.5,0.42 -10.32,3.83 -12.56,8.85 -2.24,5.04 -1.53,10.9 1.84,15.27 0.12,0.16 3.01,3.89 7.39,9.57 -22.8,-9.64 -49.75,-20.25 -77.66,-26.66 -1.12,-0.25 -2.24,-0.37 -3.35,-0.37 -4.92,0 -9.61,2.42 -12.44,6.62 -3.47,5.14 -3.41,11.89 0.14,16.97 5.64,8.07 25.15,33.14 46.46,57.51 -27.92,-21.19 -55.5,-46.91 -77.58,-70.85 l -0.05,-0.41 c -3.34,-29.15 -6.16,-54.74 27.15,-110.18 4.77,14.52 10.03,30.3 15.89,47.71 2.64,7.86 11.23,21.52 19.1,18.91 7.85,-2.64 1.16,-21.93 -1.47,-29.77 -39.66,-132.53 -43.46,-169.19 -58.47,-265.23 -14.85,-94.37 -13.07,-120.96 -10.11,-164.98 z m 7.13,313.41 c -0.31,0.33 -0.65,0.58 -0.93,0.93 -8.78,10.97 -25.75,33.95 -41.04,59.29 -35.91,-48.88 -83.96,-123.2 -115.1,-178.54 -1.24,-2.21 -2.3,-4.16 -3.46,-6.23 11,-23.91 39.44,-51.96 80.35,-54.53 1.48,1.67 2.88,3.23 4.46,5.03 26.82,30.48 47.57,56.88 52.58,65.32 6.74,40.81 13.08,71.84 23.14,108.73 m 10.26,35.52 c 3.84,12.65 8.14,26.3 13.01,41.32 -34.07,54.33 -36.63,83.7 -34.42,110.38 -17.93,-20.79 -30.62,-39.13 -34.05,-50.29 -3.21,-11.25 22.21,-57.02 55.46,-101.41 m 506.98,238.18 c -14.74,20.29 -28.02,41.05 -34.69,57.59 -22.4,-5.61 -45.81,-10.8 -70.31,-15.55 -2.68,-3.25 -6.78,-8.2 -12.22,-14.66 35.18,-9.15 83.5,-20.01 117.22,-27.38 m -105.53,-34.57 c -12.8,14.96 -27.49,30.91 -33.19,36.75 -27.82,-32.14 -64.99,-73.29 -88.38,-91.91 43.1,22.46 91.27,44.44 121.57,55.16 m -134.6,-26.97 c 24.78,21.54 63.35,65.29 88.94,95.27 -32.11,-5.3 -65.79,-9.96 -101.22,-14 -19.61,-2.23 -38.4,-3.96 -56.82,-5.43 19.28,-26.28 50.19,-61.58 69.1,-75.84 m -101.91,70.51 c -0.66,0.98 -1.37,2.01 -1.97,2.92 -12.55,-0.71 -24.81,-1.21 -36.77,-1.52 -16.45,-14.5 -51.28,-43.82 -65.64,-61.41 17.43,6.24 49.13,20.59 63.19,26.59 8.56,3.65 16,6.75 22.97,9.47 7.26,9.48 13.84,18.11 18.22,23.95 m -18.04,-72.95 c 30.14,-4.15 71.89,-11.04 93.66,-14.7 -18.71,16.25 -40.37,41.02 -57.1,62.4 -10.13,-13.34 -25.09,-32.83 -36.56,-47.7 m 246.56,-610.65 c -7.21,74.29 -22.28,162.31 -33.45,227.58 -2.65,15.44 -5.11,29.84 -7.26,42.78 l -4.01,23.88 c -12.18,72.19 -30.2,178.98 -34.59,274.44 -28.3,-14.05 -56.6,-29.32 -78.29,-43.12 1.52,-66.72 14.54,-221.04 22.5,-276.22 l 2.31,-15.91 c 13.9,-96.16 28.07,-196.67 31.53,-237.71 33.65,-0.07 67.2,1.23 101.26,4.28 m -74.03,-34.05 c 5.63,-17.39 13.62,-36.21 24.66,-58 0.04,0 0.08,0 0.12,0 19.23,-5.16 58.66,2.48 62.87,8.82 3.81,5.7 5.78,31.61 4.75,54.86 -31.16,-3.25 -61.82,-5.09 -92.4,-5.68 m 430.3,167.2 c -64.12,-66 -220.84,-97.2 -348.45,-111.89 0.76,-6.86 1.48,-13.66 2.13,-20.34 34.36,3.39 69.29,8.55 105.48,15.96 139.92,28.48 178.01,46.02 216.56,67.66 l 6.88,3.89 c 20.59,11.81 21.08,21.08 17.4,44.72 m -671.58,581.39 c 2.29,0.5 4.63,0.41 6.86,-0.16 9.1,-0.11 18.38,-0.09 27.88,0.07 1.19,0.18 2.37,0.2 3.55,0.09 41.03,0.82 85.78,4.06 134.75,9.64 85.71,9.72 160.88,22.84 226.11,39.59 1.05,0.41 2.14,0.7 3.29,0.88 13.54,3.52 26.65,7.19 39.32,11.03 1.59,0.82 3.34,1.34 5.21,1.54 194.24,60.07 285.57,158.98 289.68,306.77 -3.44,134.62 -49.27,231.87 -175.12,370.82 -2.99,3.29 -4.36,7.73 -3.74,12.12 0.6,4.4 3.13,8.29 6.89,10.66 21.14,13.24 36.14,32.17 43.38,54.76 0.39,1.24 0.64,2.53 0.98,3.8 -14.99,17.91 -32.39,34.89 -51.33,50.19 1.29,-5.03 1.86,-9.6 2.02,-13.46 1.06,-27.57 -15.73,-54.75 -42.78,-69.23 -0.75,-0.38 -1.56,-0.59 -2.37,-0.59 -1.08,0 -2.15,0.37 -3.04,1.05 -37.74,28.98 -116.26,53.4 -172.04,65.5 -1.84,0.4 -3.3,1.8 -3.78,3.63 -8.57,32.96 -2.94,61.77 15.24,79.66 -24.47,-1.54 -46.89,-5.25 -63.46,-10.36 -0.43,-1.41 -0.97,-2.8 -1.34,-4.25 -4.45,-17.41 -4.57,-36 -0.37,-55.2 0.98,-4.44 -0.11,-9.08 -2.95,-12.62 -2.86,-3.54 -7.15,-5.59 -11.69,-5.59 -93.63,0 -253.3,-29.16 -311.15,-48.07 -4.61,-1.5 -9.66,-0.68 -13.56,2.19 -3.89,2.86 -6.17,7.45 -6.1,12.29 0.26,17.82 -6.55,37.82 -18.72,54.87 l -0.03,0.04 c -0.56,0.8 -1.22,1.54 -1.81,2.32 -22.19,-2.34 -42.64,-5.89 -61.53,-10.46 29.72,-14.77 37.08,-50.64 38.77,-70.91 0.19,-2.14 -1.03,-4.16 -3.01,-5.02 -35.75,-15.32 -113.78,-79 -143.76,-113.59 -0.95,-1.11 -2.33,-1.73 -3.78,-1.73 -0.13,0 -0.26,0 -0.4,0.02 -29.24,2.35 -51.58,20.18 -59.75,47.69 -3.44,11.58 -4.14,23.7 -2.33,35.79 -17.2,-21.91 -30.52,-44.91 -41.54,-67.29 0.7,-1.37 1.4,-2.71 2.08,-3.91 14.53,-25.8 38.96,-45.57 63.73,-51.55 4.47,-1.09 8.2,-4.16 10.12,-8.36 1.91,-4.18 1.79,-9.02 -0.31,-13.11 -17.19,-33.26 -101.27,-206.94 -70.91,-363 46.15,-169.32 147,-244.46 352.84,-248.55 m -304.09,722.82 c 6.72,-22.61 24.74,-37.55 48.5,-40.32 31.4,35.34 104.36,94.88 142.31,112.77 -2.05,18.77 -9.23,48.27 -33.72,59.8 -6.7,3.16 -14.34,4.73 -22.84,4.73 -24.8,0 -56.95,-13.37 -94.62,-39.53 -41.12,-31.79 -47.08,-72.38 -39.63,-97.45 m 663.33,209.82 c -16.11,-14.67 -21.36,-39.5 -14.57,-68.46 55.29,-12.27 131.1,-36.12 170.3,-64.7 22.09,12.99 35.65,35.63 34.77,58.47 -1.15,29.62 -26.04,56.57 -70.11,75.93 -54.72,19.87 -97.59,19.48 -120.39,-1.24 m 210.17,-928.08 c -21.59,-25.75 -41.55,-85.52 -43.11,-132.61 12.22,-10.72 21.83,-20.61 29.53,-29.72 5.57,30.86 22.37,73.95 33.52,96.95 14.93,30.55 36.87,50.84 58.73,54.29 2.53,0.39 5.07,0.59 7.48,0.51 -2.73,7.04 -7.31,9.65 -11.93,11.43 -1.27,-0.09 -2.92,-0.2 -4.87,-0.34 -15.64,-1.1 -47.59,-3.32 -69.35,-0.51 m 44,-230.92 c -4.44,-3.73 -8.19,-6.89 -11.79,-9.55 4.63,-11.7 12.95,-33.48 28.19,-74.54 12.95,-35.03 27.09,-79.62 39.35,-123.94 64.76,0.89 123.62,-20.02 162.46,-58.13 35.47,-34.8 53.19,-82.82 51.22,-138.87 -3.79,-107.47 -85.94,-178.5 -225.51,-195.84 -3.48,-36.09 -8.74,-86.47 -12.33,-101.04 -7.48,-30.66 -18.72,-45.62 -40.07,-53.32 -26.17,-9.36 -58.54,-13.25 -92.42,-13.25 -2.43,0 -4.89,0.07 -7.33,0.11 -6.3,-10.93 -11.22,-23.98 -9.56,-29.54 3.45,-11.57 13.96,-46.73 -15.98,-61.12 -15.29,-8 -38.71,-10.39 -60.87,-10.41 -24.57,0 -47.57,2.98 -56.26,4.59 -42.12,7.78 -50.96,32.85 -50.96,52.53 0,10.52 0.37,21.31 1.12,32.98 1.02,15.81 2.77,32.81 4.95,50.38 -16.15,10.3 -27.7,29.52 -31.2,44.21 -3.05,12.79 -0.07,20.88 2.97,25.41 3.02,4.56 4.66,11.02 6.01,18.81 -2.24,-0.22 -4.49,-0.4 -6.74,-0.59 -0.28,-0.36 -0.46,-0.75 -0.78,-1.06 -1.5,-2.96 -4.15,-11.3 -6.3,-18.1 -5.74,-18.04 -13.6,-42.77 -26.65,-62.86 -20.78,-32.03 -38.21,-35.91 -60.57,-37.89 -1.94,-0.16 -3.93,-0.34 -5.99,-0.56 -0.39,-0.05 -0.79,-0.07 -1.18,-0.07 -2.36,-0.07 -4.76,-0.12 -7.21,-0.12 -8.08,0 -16.81,0.45 -25.82,1.12 -2.2,-7.71 -5.37,-19 -8.42,-30.57 -1.94,-7.48 -3.79,-15 -5.25,-21.62 -5.68,-25.61 -12.68,-40.68 -33.36,-47 -24.61,-6.32 -71.19,-9.11 -101.61,-9.11 -4.27,0 -8.22,0.05 -11.74,0.16 -20.63,0.7 -33,10.66 -39.76,18.89 -9.7,11.82 -14.26,28.16 -11.88,42.63 1.29,7.53 3.66,17.6 8.2,34.8 2.83,10.68 6.31,23.2 10.35,37.77 1.65,5.95 3.43,12.34 5.26,18.96 -15.16,6.56 -27.87,13.34 -36.51,20.06 -29.81,25.57 -18.53,48.05 -14.28,56.5 0.32,0.64 0.89,1.69 1.3,2.27 5.72,8.21 10.17,34.44 13.74,55.53 l 2.14,12.47 c 4.26,24.07 -4.15,57.92 -13.12,88.85 -4.42,2.43 -8.7,5 -12.86,7.75 -28.45,18.98 -30.5,49.52 -31.49,64.2 l -0.96,14.82 c -2.68,40 -4.43,66.32 5.19,136.34 -6.92,-8.27 -14.03,-16.57 -20.7,-24.16 -25.52,-29.04 -42.83,-46.68 -51.48,-52.39 -11.6,-7.61 -22.36,-11.47 -33.41,-11.47 -13.27,0 -26.95,5.54 -43.04,16.77 -39.14,27.39 -39.82,49.93 -36.03,66.52 0.09,0.41 0.28,1.12 0.4,1.53 4.71,14.82 15.99,38.13 33.53,69.31 34.09,60.59 88.18,143.62 125.39,192.73 -11.29,23.03 -18.35,45.07 -13.98,59.23 9.99,32.38 63.38,92.23 119.84,137.29 -193.88,13.75 -294.91,97.44 -341.55,269.16 -0.1,0.35 -0.18,0.69 -0.25,1.05 -29.16,148.64 38.51,310.34 65.88,367.52 -26.12,11.36 -50.17,33.2 -65.32,60.09 -15.62,27.87 -55.69,126.87 83.6,232.43 118.34,77.96 205.33,41.46 244.1,-13.29 11.53,-16.18 19.35,-34.68 22.59,-52.84 66.06,18.25 195.26,41.07 284.9,43.89 -1.85,17.56 -0.67,34.7 3.54,51.2 9.64,36.98 34.15,67.39 69.02,85.71 47.4,24.88 109.58,25.47 175.05,1.67 123.71,-48.86 156.85,-143.06 135.45,-209.97 -7.67,-23.94 -21.93,-44.68 -41.65,-60.75 105.84,-118.98 167.66,-221.27 171.66,-378.5 -4.04,-145.77 -87.06,-249.1 -256.85,-315.52 16.94,-4.25 37.5,-10.46 63.25,-19.62 18.7,-2.45 50.03,-0.23 63.6,0.73 4.67,0.32 7.97,0.54 9.3,0.54 1.7,0 3.38,-0.29 4.98,-0.86 12.3,-4.32 27.39,-12.45 33.91,-33.95 16.44,13.79 34.77,28.54 53.38,41.2 16.6,11.41 31.42,19.73 45.26,25.39 52.78,20.75 78.23,16.41 109.03,-18.57 26.96,-30.5 26.37,-66.16 -1.65,-100.41 -4.7,-5.73 -9.69,-12.52 -15.47,-20.36 -5.1,-6.92 -10.7,-14.53 -17.09,-22.75 -16.73,-21.92 -44.41,-55.52 -90.35,-93.12 -36.28,-30.18 -60.36,-44.18 -102.37,-44.18 -4.74,0 -9.7,0.18 -14.93,0.54 -13.55,0.91 -24.83,3.74 -34.51,7.44 -0.92,-0.77 -1.88,-1.57 -2.72,-2.27 m -61.49,-72.59 c -8.81,38.25 -23.23,70.38 -41.52,105.43 -2.15,0.06 -5.44,0.11 -9.64,0.22 4.23,-5.11 8.42,-10.43 12.5,-16.29 35.93,-51.7 41.72,-99.94 14.41,-120.05 -7.06,-5.2 -15.93,-7.63 -25.79,-7.63 -29.85,0 -68.87,22.32 -94.98,57.79 -21.66,29.44 -31.1,62.43 -27.64,88.14 -7.58,0.05 -14.08,0.05 -18.98,-0.02 12.45,-42.41 28.46,-96.1 36.41,-119.14 20.5,-37.21 77.68,-42.19 95.98,-40.95 l 1.76,0.22 c 21.9,2.66 44.55,5.43 54.26,19.21 5.44,7.75 6.5,18.56 3.23,33.07 m -119.01,140.77 c -2.61,0.45 -5.15,0.66 -7.61,0.66 -7.95,0 -15.05,-2.26 -21.18,-6.77 -24.46,-18.01 -19.5,-68.05 10.83,-109.25 31.08,-42.21 82.94,-65.6 106.8,-48.05 22.27,16.41 15.4,60.11 -16.7,106.3 -22.54,32.43 -48.84,53.25 -72.14,57.11 m -75.54,-23.23 c 5.58,0.09 13.94,0.09 24.04,0.02 3.08,10.37 8.57,19.11 16.78,25.14 10.14,7.46 22.69,10.22 36.36,7.93 18.85,-3.12 38.53,-15.3 57.15,-34.8 5.27,-0.11 9.79,-0.2 13.34,-0.29 -4.6,8.66 -9.33,17.45 -14.33,26.66 l -7.22,13.32 c -21.51,2.11 -60.39,2.74 -94.86,3.27 -15.52,0.25 -30.55,0.48 -43.5,0.84 2.38,-8.27 6.85,-23.68 12.24,-42.09 m 199.49,-156.37 c -12.27,-17.41 -38.27,-20.58 -61.22,-23.38 l -2.02,-0.25 c -1.92,-0.13 -4.13,-0.2 -6.59,-0.2 -25.56,0 -78.05,8.09 -99.45,47.09 -14.41,41.54 -53.57,177.65 -53.96,179.02 -0.44,1.54 -0.13,3.18 0.86,4.46 0.98,1.25 2.51,1.86 4.11,1.92 14.3,-0.49 31.9,-0.75 50.19,-1.04 37.89,-0.59 77.06,-1.2 98.41,-3.61 1.63,-0.17 3.07,-1.14 3.85,-2.59 l 8.46,-15.62 c 27.98,-51.54 50.09,-92.27 62.16,-144.75 3.95,-17.45 2.38,-30.86 -4.8,-41.05 m -324.73,-188.33 c -16.66,0 -30.17,-13.5 -30.17,-30.16 0,-16.67 13.51,-30.17 30.17,-30.17 16.67,0 30.17,13.5 30.17,30.17 0,16.66 -13.5,30.16 -30.17,30.16 m -21.97,181.88 c -16.67,0 -30.18,-13.5 -30.18,-30.16 0,-16.66 13.51,-30.18 30.18,-30.18 16.66,0 30.17,13.52 30.17,30.18 0,16.66 -13.51,30.16 -30.17,30.16 m -17.55,160.66 c -16.66,0 -30.17,-13.52 -30.17,-30.18 0,-16.66 13.51,-30.16 30.17,-30.16 16.66,0 30.17,13.5 30.17,30.16 0,16.66 -13.51,30.18 -30.17,30.18 m 242.81,-7.09 c -22.68,-3.18 -8.58,-51.86 -6.18,-60.79 2.4,-8.94 5.5,-20.62 1.72,-33.66 6.87,1.02 17.52,-6.53 32.29,-9.28 14.77,-2.75 23.36,-3.77 41.22,0 -18.21,1.37 -32.63,26.11 -22.67,37.78 13.05,9.97 26.1,-3.43 34.35,-24.73 2.4,37.45 -24.39,64.59 -39.16,68.36 -1.72,8.25 -0.69,16.84 0,26.66 0,0 -8.25,6.32 -13.74,10.09 0,0 8.59,-25.41 7.55,-32.97 0,0 -12.69,21.74 -35.38,18.54 m 122.16,683.39 c -0.53,0.02 -1.06,0.09 -1.59,0.29 l -35.85,13.78 c 7.19,-60.16 -20.09,-87.19 -46.73,-91.94 -4.38,-0.79 -8.66,-1.18 -12.81,-1.18 -23.86,0 -43.77,12.89 -59.32,38.45 -18.03,29.64 -22.65,65.23 -14,105.71 l -45.2,17.37 c -0.27,0.11 -0.46,0.31 -0.7,0.45 -3.43,-21.14 -2.21,-44.87 2.49,-69.73 12.53,-66.32 44.07,-123.93 119.34,-127.04 25.71,-0.14 92.38,15.17 94.37,113.84 m -214.41,92.02 c 0.82,0.11 1.67,0.11 2.51,-0.2 l 211.77,-81.37 c -3.56,100.18 -95.65,166 -159.92,146.91 -30.63,-13.05 -47.47,-36.32 -54.36,-65.34 m -347.75,-122.57 c -4.12,18.28 -9.32,38.84 -17.75,57.32 l -37.31,-29.03 c 10.13,-13.11 17.42,-33.4 20.65,-58.04 3.59,-27.32 -3.98,-90.97 -49.81,-102.09 -5.79,-1.3 -11.36,-1.96 -16.68,-1.96 -12.3,0 -23.33,3.51 -32.96,10.51 -22.68,16.49 -30.54,47.29 -33.22,64.43 l -30.09,-23.41 c -0.44,-0.35 -0.99,-0.34 -1.49,-0.52 24.04,-70.55 68.99,-101.58 132.01,-79.28 64.37,22.78 77.76,112.8 66.65,162.07 m -201.72,-73.14 178.73,139.03 c 0.23,0.2 0.51,0.25 0.76,0.4 -13.69,25.26 -34.76,44.74 -69.77,45.37 -85.15,0 -129.75,-110.91 -109.72,-184.8 m 728.98,-98.59 c -110.74,-7.38 -118.13,109.69 -332.23,88.6 -117.51,-17.94 -164.54,-85.44 -246.81,-151.89 -80.15,-64.86 -172.97,-40.07 -212,10.56 -48.51,67.5 -44.29,219.37 4.22,311.14 68.56,111.8 149.49,185.23 380.76,222.21 271.06,46.74 393.4,-19.71 500.99,-176.86 107.58,-157.15 36.92,-294.28 -94.93,-303.76 m -123.9,-56.63 c -2.58,-4.11 -7.89,-5.5 -12.11,-3.16 l -29.47,16.34 c -8.66,4.73 -20.35,11.04 -33.37,17.73 5.52,-8.62 9.64,-17.68 12.31,-27.09 6.68,-23.39 2.8,-46.82 -11.2,-67.75 -19.31,-28.85 -54.82,-48.21 -97.42,-53.07 -5.14,-0.59 -10.23,-0.89 -15.25,-0.89 -5.26,0 -10.44,0.32 -15.5,0.98 -59.77,7.65 -88.92,56.48 -89.8,87.06 -0.29,10.28 1.2,21.57 4.32,33.05 -8.41,-8.95 -15.77,-17.27 -21.25,-23.61 -10.82,-12.55 -17.64,-21.19 -17.68,-21.25 -3.08,-3.93 -8.81,-4.62 -12.75,-1.52 -3.76,2.97 -4.57,8.38 -1.86,12.33 0.27,0.37 26.25,37.82 56.81,71.28 l 4.03,4.34 c 2.58,2.8 5.15,5.59 7.85,8.22 l 2.42,2.42 c 3.19,3.2 6.33,6.38 9.62,9.29 4.32,4.05 8.06,7.43 11.98,10.52 3.88,3.34 7.85,6.37 11.61,8.89 3.8,2.82 7.42,5.14 10.89,6.93 l 2.34,1.32 c 2.39,1.36 4.66,2.64 7.21,3.46 l 11.7,3.75 c 0.68,0.13 1.32,0.29 2.28,0.25 1.43,0.34 3.24,0.66 6.27,0.68 4.6,0.25 9.09,0.11 13.14,-0.43 3.85,-0.21 8.07,-1.1 12.54,-2.05 l 2.55,-0.53 c 18.84,-4.49 42.84,-14.45 71.47,-29.61 24.3,-12.93 47.37,-26.84 64.75,-37.49 l 28.66,-17.89 c 4.25,-2.64 5.55,-8.26 2.91,-12.5"
         inkscape:connector-curvature="0" /><path
         id="path20"
         style="fill:#8a4d41;fill-opacity:1;fill-rule:nonzero;stroke:none"
         d="m 3090.84,4096 c -2.37,-7.04 -6.14,-11.83 -11.24,-14.25 l -3.93,-1.85 3.41,-2.7 c 6.09,-4.8 10.88,-10.99 13.88,-17.92 l 1.43,-3.33 2.78,2.34 c 3.64,3.08 8.19,9.38 10.04,17.82 l 0.24,1.11 -0.62,0.95 c -3.74,5.67 -7.27,11.48 -11.1,18.3 l -2.97,5.28 z m 72.91,-69.75 c 4.75,-4.48 9.7,-8.97 14.88,-13.28 l 0.79,-0.67 1.05,0.05 c 28.16,1.21 51.19,25.75 56,59.69 0.99,7.29 7.23,71.88 -76.95,103.07 -3.43,1.34 -7.23,2.61 -11.13,3.78 -42.72,13.03 -71.16,27.66 -84.55,43.51 l -2.28,2.69 -2,-2.91 c -7.44,-10.86 -32.56,-51.38 -43.47,-116.77 -2.19,-13.28 -3,-23.44 -2.41,-30.23 l 0.54,-6.32 4.17,4.79 c 7.87,9.04 18.34,13.82 30.26,13.82 2.74,0 5.58,-0.25 8.43,-0.77 2.92,-0.43 5.7,-1.16 8.34,-2.16 l 0.62,-0.24 0.66,0.09 c 6.25,0.75 17.49,4.74 22.5,23.06 l 0.28,1.01 -0.48,0.93 c -2.95,5.79 -5.55,11.36 -7.73,16.54 l -2.43,5.81 -2.52,-5.77 c -6.26,-14.3 -22.21,-19.36 -33.98,-19.36 -3.59,0 -7.11,0.46 -10.17,1.33 -2.26,0.64 -4.3,1.51 -5.72,2.27 1.28,0.18 3.23,0.33 6.16,0.34 18.93,0.12 33.79,9.43 43,26.93 l 0.55,1.07 -0.42,1.12 c -2.32,6.23 -4.01,11.29 -5.32,15.9 l -1.95,6.95 -3.07,-6.54 c -1.59,-3.39 -5.48,-9.08 -13.65,-9.08 -2.16,0 -4.51,0.41 -6.96,1.22 -2.65,0.82 -4.46,1.85 -5.6,2.75 1.09,-0.09 2.37,-0.19 3.82,-0.19 2.16,0 4.2,0.21 6.25,0.65 7.5,1.67 13.6,7.85 17.17,17.42 l 0.27,0.76 -0.17,0.79 c -3.82,16.63 -4.28,27.86 -3.82,33.83 0.48,-1.8 1,-3.92 1.54,-6.09 1.5,-6.15 3.55,-14.56 6.59,-24.54 l 0.46,-1.52 1.56,-0.34 c 2.5,-0.53 4.71,-0.79 6.74,-0.79 7.41,0 12.7,3.47 17.66,11.61 l 0.5,0.85 c -0.02,-0.43 -0.03,-0.89 -0.06,-1.39 -0.33,-5.37 -5.24,-16.44 -18.42,-16.44 -0.64,0 -1.29,0.03 -1.96,0.07 l -4.14,0.33 1.41,-3.9 c 2.1,-5.93 4.5,-12.19 7.28,-18.89 l 0.61,-1.48 1.59,-0.17 c 2.44,-0.24 4.74,-0.37 6.87,-0.37 22.59,0 29.78,13.23 36.25,29.22 0.02,0.05 0.04,0.08 0.05,0.13 0.38,-9.9 -2.83,-19.18 -8.88,-25.6 -6.34,-6.74 -15.7,-10.29 -27.11,-10.29 l -5.85,0.12 1.92,-3.97 c 2.57,-5.33 5.34,-10.89 8.41,-16.57 l 0.75,-1.41 1.61,-0.01 c 38.52,0 55.98,26.12 59.44,48.51 l 0.09,0.5 c 1.48,-13.35 -2.92,-26.89 -12.13,-37.29 -9.92,-11.21 -24.44,-17.66 -39.84,-17.66 l -6.05,0.12 2.48,-4.17 c 3.21,-5.4 6.61,-10.8 10.32,-16.34 l 0.8,-1.18 h 1.44 c 43.58,0.03 65.05,32.41 70.47,60.87 1.93,-15.43 -2.73,-31.29 -12.94,-43.82 -11.84,-14.51 -29.24,-22.94 -49.01,-23.71 l -4.98,-0.2 2.9,-4.05 c 3.05,-4.3 6.43,-8.51 9.89,-12.85 l 0.86,-1.06 1.45,-0.07 c 53.7,2.05 69.73,36.1 73.73,64.31 0.09,0.59 0.18,1.13 0.27,1.62 0.04,-0.58 0.1,-1.21 0.13,-1.89 1.09,-17.76 -5.1,-35.95 -16.53,-48.64 -11.57,-12.88 -28.35,-20.17 -48.49,-21.08 l -5.65,-0.24 3.76,-4.24 c 3.81,-4.29 7.93,-8.7 12.16,-13.03 l 0.74,-0.77 c 0,0 2.83,-0.1 3.75,-0.1 17.15,0 31.99,6.32 44.11,18.77 11.85,12.06 16.53,22.96 20.64,37.73 0.31,1.05 0.6,1.95 0.88,2.72 0.04,-0.71 0.09,-1.54 0.12,-2.5 0.49,-15.21 -7.71,-33.09 -16.08,-42.91 -8.22,-9.5 -24.95,-19.14 -41.04,-19.14 h -6.79 z m -125.33,-35.46 c 14.83,-22.06 33.65,-34.68 57.53,-38.61 3.98,-0.66 7.99,-0.99 11.89,-0.99 19.72,0 38.61,8.84 50.52,23.66 7.1,9.07 12.1,23.45 12.31,31.21 l 0.04,1.28 -0.97,0.84 c -4.12,3.52 -8.7,7.83 -13.65,12.57 l -3.76,3.57 -0.77,-5.13 c -2.45,-16.28 -9.67,-29.93 -21.46,-40.57 -12.06,-10.97 -26.52,-14.88 -36.03,-14.88 -0.76,0 -1.42,0.03 -2.03,0.08 0.5,0.18 1.04,0.36 1.53,0.55 6.62,2.37 17.71,6.35 29.73,17.14 12.8,11.67 21.46,28.65 23.74,46.59 l 0.17,1.32 -0.94,0.94 c -3.6,3.59 -7.18,7.37 -10.74,11.36 l -3.38,3.78 -1.24,-4.91 c -3.65,-14.41 -9.51,-26.36 -17.44,-35.53 -17.04,-19.96 -35.73,-22.94 -45.34,-22.94 -3.26,0 -5.9,0.34 -7.92,0.79 9.22,0.94 26.75,3.69 47.17,27.26 7.8,9.02 15.86,25.76 19.18,39.79 l 0.32,1.33 -0.87,1.04 c -4.54,5.37 -8.14,9.91 -11.31,14.29 l -3.3,4.55 -1.48,-5.43 c -2.3,-8.46 -7.85,-15.91 -11.9,-18.63 l -1.37,-0.9 0.19,-1.65 c 0.4,-3.49 0.4,-6.92 0,-10.48 -1.56,-12.78 -7.87,-24.02 -17.76,-31.62 -7.46,-5.85 -16.74,-8.94 -26.83,-8.94 -2.16,0 -4.35,0.15 -6.56,0.43 -1.37,0.21 -2.87,0.53 -4.29,0.94 l -7.1,2.03 z m 69,-52.47 c -4.61,0 -9.31,0.41 -13.96,1.21 -30.59,5.05 -54.28,23.65 -70.4,55.27 -5.19,10.17 -5.99,17.87 -5.74,21.37 l 0.53,-0.47 c 2.08,-1.85 5.23,-4.65 10.41,-7.95 5.18,-3.21 11.11,-5.19 18.15,-6.09 1.54,-0.23 3.12,-0.35 4.68,-0.35 7.72,0 15.73,2.87 22.57,8.08 7.7,6.07 12.53,15.25 13.65,25.88 2.56,21.2 -10.74,39.19 -31.63,42.73 -1.78,0.31 -3.56,0.45 -5.33,0.45 -14.93,0 -29.78,-10.54 -36.94,-26.23 -1.51,-3.24 -2.47,-5.57 -3.17,-7.22 -0.03,-0.07 -0.06,-0.14 -0.1,-0.22 -3.29,6.89 -9.06,26.5 -3.94,60.13 8.93,59.24 34.35,107.71 43.39,121.39 3.75,5.81 8.07,10.72 9.92,12.45 2.93,-2.65 8.74,-9.38 11.7,-11.86 18.45,-15.11 40.04,-24.74 82.53,-36.85 34.62,-9.98 62.57,-29.53 80.84,-56.56 17.3,-25.85 16.03,-49.81 13.56,-65.6 -4.61,-30.65 -27.96,-58.7 -52.06,-62.52 l -6.76,-1.09 5.69,-3.82 c 15.69,-10.5 36.58,-21.01 57.34,-28.82 0.22,-0.06 0.39,-0.13 0.53,-0.19 -0.05,-0.07 -0.13,-0.15 -0.2,-0.22 -14.67,-14.41 -23.71,-23.49 -26.21,-26.36 0.08,-0.19 0.09,-0.28 0.03,-0.28 -0.08,0 -0.3,0.18 -0.59,0.53 -16.32,22.17 -29.11,38.46 -42.08,50.7 l -3.76,3.57 -0.74,-5.13 c -1.32,-9.08 -6.2,-20.16 -12.44,-28.22 -10.74,-13.37 -32.05,-27.71 -59.46,-27.71"
         inkscape:connector-curvature="0" /><path
         id="path22"
         style="fill:#8a4d41;fill-opacity:1;fill-rule:nonzero;stroke:none"
         d="m 3434.6,3890.14 c -4.08,0.21 -8.07,0.57 -11.73,1.06 -89.14,10.63 -98.18,74.89 -98.92,82.19 -3.27,34.14 13.37,63.39 40.48,71.15 l 1,0.29 0.93,-0.45 c 6.04,-2.98 11.91,-6.19 17.58,-9.43 l 5.91,-3.39 -6.63,-1.58 c -17.57,-4.16 -30.91,-19.18 -35.58,-28.25 -5.84,-11.49 -9.65,-30.8 -5.6,-45.47 0.26,-0.93 0.49,-1.74 0.71,-2.42 0.08,0.81 0.17,1.76 0.2,2.87 0.55,15.31 2.56,27 11.25,41.51 9.22,15.52 23.43,25.59 41.09,29.13 l 1.06,0.21 0.91,-0.56 c 5.11,-3.23 10.16,-6.56 14.87,-9.83 l 4.65,-3.23 -5.44,-1.57 c -19.37,-5.6 -33.98,-16.6 -42.22,-31.84 -8.14,-15.03 -9.88,-34.16 -4.69,-51.16 0.21,-0.66 0.4,-1.26 0.59,-1.81 -0.03,0.52 -0.07,1.06 -0.13,1.63 -2.71,28.36 4.91,65.23 56.62,79.79 l 1.31,0.37 1.08,-0.83 c 4.43,-3.43 8.75,-6.78 12.75,-10.28 l 3.76,-3.27 -4.79,-1.34 c -19.04,-5.39 -33.98,-17.64 -42.08,-34.52 -7.02,-14.58 -7.83,-31.09 -2.33,-45.65 -1.4,28.94 11.9,65.45 54.25,75.69 l 1.4,0.34 1.05,-0.97 c 4.92,-4.52 9.49,-8.98 13.87,-13.46 l 3.39,-3.47 -4.74,-1.05 c -15.3,-3.34 -28.25,-12.93 -35.53,-26.29 -6.73,-12.38 -7.93,-26.75 -3.3,-39.55 l -0.03,0.51 c -1.89,22.76 9.14,52.42 46.45,61.07 l 1.55,0.35 1.07,-1.19 c 4.3,-4.8 8.29,-9.55 12.04,-14.14 l 2.19,-2.66 -4.13,17.33 c -1.51,1.86 -3.03,3.72 -4.68,5.63 l -0.67,0.81 0.03,1.03 c 0.11,3.57 0.64,6.57 1.32,9.31 l -2.8,11.78 c -1.47,-2.9 -2.44,-6.31 -2.8,-10.34 l -0.52,-6.04 -4.14,4.44 c -5.4,5.82 -10.18,10.66 -15.05,15.2 l -0.84,0.78 -0.01,1.13 c -0.2,8.62 2.76,15.81 5.59,19.67 l 2.14,2.92 2.19,-2.9 c 2.7,-3.61 6.04,-6.75 9.75,-9.45 l -4.22,17.78 c -2.9,4.76 -4.96,10.22 -5.67,16.35 -0.37,2.84 -0.42,5.63 -0.23,8.36 l -4.3,18.03 c -4.35,-8.26 -6.13,-17.74 -5.01,-27.47 0.45,-3.56 1.26,-6.9 2.45,-10.2 l 0.56,-1.54 -1.11,-1.2 c -3.3,-3.59 -6.95,-12.14 -7.2,-20.9 l -0.17,-5.62 -4.28,3.65 c -4.11,3.51 -8.66,7.08 -14.33,11.25 l -1.1,0.8 v 1.36 c -0.05,14.44 3.88,32.6 9.34,43.17 5.5,10.63 11.28,18.14 16.84,23.57 l -1.37,5.72 c -7.66,-4.94 -16.03,-12.83 -22.59,-25.74 -5.55,-10.75 -8.46,-23.75 -8.64,-38.63 l -0.06,-5.07 -4.17,2.89 c -4.39,3.05 -8.76,5.9 -13.1,8.55 l -1.13,0.7 -0.14,1.3 c -1.98,17.97 2.45,36.5 12.16,50.85 9.17,13.31 19.02,19.78 24.9,23.64 0.45,0.29 0.9,0.59 1.35,0.89 -7.46,-1.25 -22.81,-7.52 -33.53,-23.3 -8.97,-13.11 -12.78,-28.08 -11.37,-44.49 l 0.45,-5.16 -4.48,2.61 c -5.93,3.45 -11.38,6.56 -16.22,9.02 l -1.15,0.58 -0.26,1.27 c -1.6,7.59 -0.11,22.74 4.67,33.22 3.35,7.09 16.78,30.69 48.77,35.88 2.15,0.35 4.35,0.61 6.61,0.77 2.73,0.19 5.42,0.23 8.09,0.19 l -4.54,12.74 c -1.36,-0.05 -2.7,0.03 -4.09,-0.06 -2.71,-0.18 -5.36,-0.49 -7.92,-0.9 -29.9,-4.86 -49.21,-24.92 -57.28,-42.04 -4.17,-9.29 -6.32,-21.2 -5.47,-30.34 l 0.47,-5.17 -4.49,2.59 c -15.51,8.89 -31.16,21.24 -52.79,39.45 -0.35,0.25 -0.59,0.39 -0.68,0.37 -0.06,-0.01 -0.04,-0.09 0.09,-0.25 -1.77,-3.39 -8.43,-14.36 -19.31,-31.77 -0.06,-0.09 -0.11,-0.19 -0.17,-0.26 0.16,-0.03 0.36,-0.05 0.57,-0.07 21.98,-2.73 44.76,-8.04 62.5,-14.6 l 6.43,-2.37 -6.33,-2.64 c -22.51,-9.37 -38.64,-42.1 -35.98,-72.99 1.3,-15.91 5.68,-39.5 28.56,-60.61 24.08,-21.99 55.83,-34.46 91.81,-36.06 14.66,-0.61 26.85,-1.52 37.59,-2.81 l 11.17,6.82 0.97,2.46 c -13.52,2.65 -29.17,4.56 -47.12,5.63"
         inkscape:connector-curvature="0" /><path
         id="path24"
         style="fill:#8a4d41;fill-opacity:1;fill-rule:nonzero;stroke:none"
         d="m 3456,3930.62 c -4.54,-7.72 -5.56,-17.62 -2.82,-27.3 0,0.04 0.01,0.09 0.02,0.14 2.71,18.2 7.09,33.62 33.08,37.83 l 0.34,0.05 -1.55,6.47 -3.9,-0.84 c -11.65,-2.49 -20.37,-8.16 -25.17,-16.35"
         inkscape:connector-curvature="0" /><path
         id="path26"
         style="fill:#8a4d41;fill-opacity:1;fill-rule:nonzero;stroke:none"
         d="m 3492.47,3916.72 c -1.85,-1.19 -3.45,-2.65 -4.74,-4.46 -3.24,-4.6 -3.72,-9.97 -3.14,-13.2 0.09,-0.49 0.17,-0.94 0.25,-1.35 l 0.3,0.92 c 1.65,5.12 3.76,8.76 6.55,11.32 l 1.49,3.81"
         inkscape:connector-curvature="0" /><path
         id="path28"
         style="fill:#8a4d41;fill-opacity:1;fill-rule:nonzero;stroke:none"
         d="m 2700.25,3976.89 c 2.26,34.22 23.37,60.43 51.37,63.74 l 1.03,0.12 0.84,-0.6 c 5.49,-3.9 10.76,-8.03 15.84,-12.12 l 5.29,-4.29 -6.79,-0.5 c -18,-1.28 -33.59,-13.97 -39.66,-22.18 -7.6,-10.41 -14.45,-28.87 -12.81,-43.98 0.1,-0.97 0.21,-1.79 0.31,-2.5 0.22,0.79 0.45,1.71 0.67,2.79 2.98,15.02 6.85,26.25 17.74,39.16 11.6,13.88 27.24,21.53 45.25,22.18 l 1.07,0.04 0.8,-0.72 c 4.54,-3.98 8.99,-8.08 13.11,-12.08 l 4.07,-3.92 -5.62,-0.69 c -20.01,-2.42 -36.2,-10.94 -46.77,-24.65 -10.45,-13.53 -15.24,-32.13 -12.83,-49.75 0.1,-0.67 0.19,-1.31 0.28,-1.88 0.06,0.52 0.11,1.06 0.14,1.64 1.87,28.42 15.29,63.6 68.68,69.67 l 1.4,0.12 0.92,-1.01 c 3.8,-4.08 7.51,-8.05 10.9,-12.13 l 3.19,-3.83 -4.95,-0.57 c -19.66,-2.27 -36.38,-11.96 -47.09,-27.33 -9.23,-13.26 -12.68,-29.4 -9.59,-44.64 3.26,28.79 22.24,62.66 65.68,65.97 l 1.43,0.12 0.89,-1.13 c 4.12,-5.24 7.92,-10.37 11.52,-15.51 l 2.79,-3.96 -4.85,-0.28 c -15.64,-0.85 -29.94,-8.23 -39.27,-20.25 -8.64,-11.14 -12.12,-25.13 -9.6,-38.52 l 0.04,0.52 c 1.8,22.77 17.45,50.27 55.64,52.83 l 1.59,0.11 0.85,-1.34 c 3.5,-5.45 6.67,-10.78 9.64,-15.89 l 2.22,-3.82 -4.41,-0.22 c -11.9,-0.59 -21.4,-4.79 -27.46,-12.11 -5.72,-6.89 -8.31,-16.49 -7.16,-26.49 0.01,0.04 0.03,0.09 0.04,0.13 5.59,17.53 12.36,32.04 38.69,32.04 l 3.73,-0.07 0.73,-1.44 c 3.27,-6.47 6.13,-12.53 8.67,-18.28 l 1.6,-3.78 h -4.13 c -5.67,0 -10.31,-1.79 -13.77,-5.31 -3.96,-4.02 -5.3,-9.25 -5.24,-12.53 0.01,-0.5 0.02,-0.96 0.03,-1.38 l 0.45,0.87 c 4.71,9.21 10.12,12.97 18.66,12.97 1.49,0 3.11,-0.12 4.86,-0.35 l 1.58,-0.22 0.57,-1.48 c 3.77,-9.72 6.46,-17.95 8.42,-23.97 0.69,-2.11 1.37,-4.2 1.98,-5.96 0.01,6 -1.3,17.16 -6.34,33.45 l -0.25,0.78 0.23,0.78 c 2.84,9.8 8.46,16.42 15.81,18.64 3.68,1.09 6.77,1.23 9.06,1.23 l 0.95,-0.01 c -1.21,0.8 -3.09,1.71 -5.79,2.32 -1.99,0.5 -3.89,0.75 -5.67,0.75 -9.09,0 -12.86,-6.35 -14.3,-10.13 l -2.56,-6.76 -2.48,6.79 c -1.65,4.5 -3.71,9.41 -6.5,15.45 l -0.5,1.09 0.48,1.11 c 7.85,18.15 21.97,28.55 40.84,30.08 2.93,0.24 4.86,0.54 6.11,0.8 -1.46,0.67 -3.56,1.38 -5.86,1.84 -2.22,0.46 -4.61,0.69 -7.11,0.69 -13.42,0 -30.27,-6.88 -35.57,-21.99 l -2.08,-5.95 -2.86,5.63 c -2.53,4.97 -5.54,10.32 -8.95,15.91 l -0.54,0.89 0.19,1.02 c 3.62,18.63 14.53,23.47 20.72,24.7 l 0.65,0.13 0.63,-0.2 c 2.71,-0.8 5.54,-1.31 8.48,-1.53 1.7,-0.18 3.38,-0.26 5.01,-0.26 h 0.01 c 13.4,0 24.67,5.6 32.58,16.19 l 3.81,5.09 1.02,-6.26 c 1.08,-6.74 1.04,-16.93 -0.14,-30.33 -5.98,-66.01 -27.97,-108.31 -34.57,-119.71 l -1.77,-3.05 -2.48,2.52 c -14.55,14.79 -44.01,27.25 -87.58,37.03 -3.99,0.87 -7.88,1.85 -11.4,2.93 -86.29,24.77 -84.91,89.66 -84.48,96.98 m 70.58,102.79 c 4.44,6.48 21.48,27.6 53.88,27.6 2.18,0 4.39,-0.1 6.66,-0.3 24.11,-2.12 43.81,-13.29 60.26,-34.17 l 4.59,-5.82 -7.26,1.51 c -1.43,0.3 -2.96,0.51 -4.33,0.61 -0.96,0.06 -1.9,0.08 -2.85,0.08 -11.42,0 -22,-3.93 -29.82,-11.08 -9.29,-8.33 -14.73,-20.01 -15.32,-32.86 -0.13,-3.63 0.13,-7.05 0.78,-10.45 l 0.31,-1.61 -1.29,-1.02 c -3.83,-3.01 -8.8,-10.85 -10.46,-19.47 l -1.06,-5.52 -3.64,4.29 c -3.49,4.1 -7.41,8.36 -12.35,13.38 l -0.96,0.98 0.21,1.34 c 2.28,14.26 9.07,31.56 16.16,41.13 18.61,25.07 35.89,29.11 45,30.74 -1.32,0.18 -2.9,0.31 -4.76,0.31 -6.42,0 -28.78,-1.9 -46.7,-26.42 -7.21,-9.71 -12.17,-22.08 -14.72,-36.74 l -0.88,-5 -3.65,3.52 c -3.84,3.72 -7.7,7.23 -11.56,10.54 l -1,0.86 0.06,1.33 c 0.93,18.04 8.27,35.63 20.16,48.25 11.19,11.66 21.94,16.46 28.36,19.33 0.49,0.21 1,0.44 1.48,0.66 -7.56,-0.03 -23.73,-3.77 -36.84,-17.63 -10.94,-11.49 -17.11,-25.65 -18.35,-42.08 l -0.38,-5.17 -4,3.3 c -5.3,4.34 -10.19,8.28 -14.57,11.5 l -1.04,0.76 -0.06,1.29 c -0.36,7.75 3.55,22.46 9.94,32.03 m 86.75,-96.09 3.6,-2.42 -3.76,-2.15 c -4.9,-2.8 -8.31,-7.87 -10.14,-15.07 l -1.5,-5.88 -3.35,5.04 c -4.43,6.66 -8.38,12.19 -12.43,17.42 l -0.71,0.9 0.16,1.12 c 1.2,8.56 5.28,15.18 8.69,18.53 l 2.58,2.54 1.69,-3.21 c 3.49,-6.67 8.74,-12.48 15.17,-16.82 m 19.11,-148.67 c 3.13,-2.25 9.36,-8.45 12.01,-11.33 l 0.56,0.38 c 1.7,1.88 5.65,7.09 8.94,13.14 7.99,14.33 29.7,64.58 34.15,124.32 2.58,33.92 -4.66,53.05 -8.46,59.67 -0.02,-0.07 -0.05,-0.13 -0.07,-0.21 -0.57,-1.7 -1.37,-4.09 -2.63,-7.45 -6.29,-17.1 -21.62,-29.03 -37.28,-29.03 -0.97,0 -1.95,0.04 -2.93,0.14 -21.11,1.95 -35.72,18.89 -34.75,40.23 0.31,10.67 4.44,20.19 11.66,26.84 7.15,6.34 15.79,9.83 24.31,9.83 0.77,0 1.56,-0.02 2.29,-0.08 7.08,-0.36 13.14,-1.89 18.54,-4.7 5.43,-2.91 8.77,-5.45 10.98,-7.14 0.2,-0.15 0.38,-0.3 0.57,-0.43 -0.01,3.5 -1.38,11.11 -7.31,20.88 -18.47,30.3 -43.49,47.07 -74.36,49.8 -2.71,0.26 -5.36,0.38 -7.95,0.38 -30.3,0 -52.58,-16.72 -63.3,-32.31 -5.6,-8.5 -9.63,-19.92 -10.26,-29.08 l -0.36,-5.18 -4.03,3.27 c -11.28,9.16 -22.34,20.66 -35.97,36.14 l -5.29,-27.24 c 11.07,-4.45 21.55,-9.32 30.46,-14.35 l 5.97,-3.38 -6.68,-1.59 c -15.9,-3.78 -30.5,-18.48 -39.21,-37 l -6.43,-58.27 c 2.38,-11.05 7.32,-23.17 16.91,-35.4 20.25,-25.59 49.6,-42.98 84.85,-50.33 43.29,-8.87 65.55,-16.85 85.07,-30.52"
         inkscape:connector-curvature="0" /><path
         id="path30"
         style="fill:#8a4d41;fill-opacity:1;fill-rule:nonzero;stroke:none"
         d="m 3130.25,3784.3 c -28.84,12.01 -36.91,27.8 -40.7,36.25 0.24,-2.3 0.85,-5.33 2.15,-8.96 2.86,-7.93 10.43,-21.84 29.09,-31.57 l 17.32,1.7 c -2.87,0.75 -5.54,1.61 -7.86,2.58"
         inkscape:connector-curvature="0" /><path
         id="path32"
         style="fill:#8a4d41;fill-opacity:1;fill-rule:nonzero;stroke:none"
         d="m 3082.44,3783.01 c -0.34,0.43 -0.68,0.87 -1.02,1.29 0.55,-2.06 1.63,-4.8 3.18,-7.82 l 3,0.29 c -2.08,2.34 -3.79,4.49 -5.16,6.24"
         inkscape:connector-curvature="0" /><path
         id="path34"
         style="fill:#8a4d41;fill-opacity:1;fill-rule:nonzero;stroke:none"
         d="m 3186.5,3836.29 3,-3.14 c 3.88,-4.08 9.63,-6.17 17.06,-6.21 l 6.07,-0.02 -4.09,-4.48 c -5.33,-5.83 -9.75,-10.99 -13.9,-16.28 l -0.69,-0.89 -1.14,-0.11 c -1.29,-0.13 -2.57,-0.2 -3.79,-0.2 -5.97,0 -12.05,1.55 -16.29,4.15 l -3.09,1.89 2.72,2.41 c 5.62,5.01 10,11.51 12.66,18.8 z m 138.15,50.38 c 1.42,3.58 5.99,11.22 7.59,14.84 -2.24,1.22 -8.27,3.77 -14.92,5.51 -10.6,2.86 -37.73,7.73 -72.23,7.73 -19.62,0 -38.68,-1.56 -56.66,-4.64 -33.54,-5.7 -50.34,-17.34 -55.84,-22.63 0.06,-0.01 0.13,-0.01 0.2,-0.02 1.8,-0.13 4.3,-0.33 7.89,-0.74 19.34,-2.12 35.21,-15.6 37.75,-32.03 3.2,-20.96 -9.71,-39.24 -30.64,-43.46 -3,-0.64 -6.04,-0.98 -8.99,-0.98 -7.23,0 -14.1,2 -19.87,5.82 -8.69,5.94 -14.32,14.29 -15.89,23.44 -1.36,6.98 -1.34,13.22 0.07,19.14 1.52,5.95 3.18,9.82 4.27,12.37 0.1,0.21 0.19,0.44 0.3,0.64 -3.41,-0.83 -10.32,-3.87 -18.5,-12.12 -24.96,-25.24 -35.18,-53.57 -30.37,-84.2 0.07,-0.48 0.23,-0.9 0.32,-1.36 l 12.87,1.26 c -0.1,0.59 -0.3,1.11 -0.39,1.71 -3.77,23.9 2.32,45.72 18.6,66.73 l 4.5,5.83 0.33,-7.37 c 0.05,-1.47 0.21,-2.99 0.44,-4.37 2.36,-12.33 8.95,-22.64 18.57,-29.03 7.6,-5.16 16.58,-7.89 25.97,-7.89 3.21,0 6.45,0.32 9.61,0.97 3.55,0.74 6.8,1.81 9.98,3.28 l 1.48,0.69 1.29,-1 c 3.52,-2.74 11.34,-5.5 19.46,-5.5 0.64,0 1.3,0.01 1.95,0.05 l 5.64,0.31 -3.29,-4.57 c -2,-2.77 -4.08,-5.91 -6.24,-9.27 l 12.55,1.23 c 0.98,1.44 1.95,2.99 2.98,4.38 l 2.95,4.01 1.73,-4.67 c 0.36,-0.98 0.89,-1.87 1.3,-2.84 l 7.61,0.74 c -1.97,3.73 -3.78,7.76 -5.28,12.29 l -0.45,1.36 0.89,1.13 c 4.09,5.27 8.14,10.2 12.25,14.93 l 3.2,3.66 1.41,-4.64 c 2.71,-8.8 7.45,-16.4 13.53,-22.48 l 8.04,2.05 c -7.16,6.23 -13.72,15.22 -17.93,28.35 l -0.48,1.52 1.09,1.16 c 4.41,4.7 8.82,9.07 13.09,13.19 l 3.16,3.06 1.28,-4.22 c 5.15,-17.01 16.92,-26.79 32.27,-26.79 4.48,0 9.14,0.87 13.57,2.52 -0.05,0.01 -0.11,0.01 -0.17,0.01 -18.84,1.22 -34.92,4.48 -40.93,31.88 l -0.35,1.57 1.22,1.04 c 5.5,4.74 10.7,8.98 15.66,12.85 l 3.27,2.55 1,-4.03 c 2.66,-10.83 11,-14.69 17.93,-14.69 1.39,0 2.78,0.17 3.98,0.49 0.48,0.12 0.93,0.26 1.32,0.36 l -0.95,0.22 c -11.62,2.69 -16.65,8.24 -17.93,19.76 l -0.17,1.59 1.3,0.91 c 8.54,6.02 15.87,10.62 21.23,13.98 1.88,1.16 3.72,2.31 5.27,3.33 -6.21,-1.54 -17.05,-5.84 -30.89,-14.22 l -0.68,-0.41 -0.81,0.02 c -10.22,0.4 -18,4.25 -21.92,10.84 -2.2,3.73 -3.06,7.08 -3.61,9.41 -0.48,-1.36 -0.91,-3.4 -0.86,-6.17 0.02,-13.93 9.75,-16.61 13.95,-17.11 l 7.18,-0.86 -6,-4.05 c -3.99,-2.69 -8.25,-5.88 -13.41,-10.03 l -0.95,-0.76 -1.2,0.2 c -19.76,3.3 -32.91,14.18 -39.05,32.37 -0.96,2.86 -1.73,4.68 -2.25,5.81 -0.29,-1.59 -0.48,-3.83 -0.37,-6.2 0.57,-14.05 11.64,-34.47 30.98,-36.27 l 6.26,-0.58 -4.75,-4.13 c -4.26,-3.71 -8.73,-7.92 -13.26,-12.54 l -0.74,-0.74 c 0,0 -2.89,-0.13 -3.76,-0.13 -17.06,0 -23.77,8.9 -26.25,14.2 l -0.29,0.6 0.04,0.66 c 0.11,2.82 -0.07,5.68 -0.57,8.6 -2.2,15.34 -10.93,26.92 -24.54,32.64 l -5.87,2.45 5.84,2.51 c 6.26,2.69 16.18,5.11 29.46,7.2 17.89,2.77 35.86,4.18 53.37,4.18 36.7,0 61.99,-6.14 71.15,-8.79 l 3.41,-0.99 -1.86,-3.01 c -9.68,-15.75 -14.64,-42.61 -14.87,-79.84 l 11.85,3.03 c -0.43,32.45 2.36,52.35 9.58,71.21"
         inkscape:connector-curvature="0" /><path
         id="path36"
         style="fill:#8a4d41;fill-opacity:1;fill-rule:nonzero;stroke:none"
         d="m 2858.48,4405.2 -1.65,15.12 c -6.52,3.49 -13.36,6.61 -20.59,9.24 l -17.77,-7.06 c 0.46,-0.14 0.87,-0.29 1.34,-0.43 3.92,-1.17 7.71,-2.45 11.16,-3.78 10.52,-3.91 19.62,-8.32 27.51,-13.09"
         inkscape:connector-curvature="0" /><path
         id="path38"
         style="fill:#8a4d41;fill-opacity:1;fill-rule:nonzero;stroke:none"
         d="m 2842.11,4249.23 c -0.22,-7.75 -5.21,-22.14 -12.32,-31.21 -11.91,-14.82 -30.79,-23.66 -50.5,-23.66 -3.91,0 -7.93,0.34 -11.91,1 -23.88,3.92 -42.68,16.56 -57.52,38.61 l -4.14,6.14 7.12,-2.05 c 1.39,-0.4 2.91,-0.72 4.29,-0.93 2.21,-0.29 4.41,-0.43 6.58,-0.43 10.08,0 19.35,3.08 26.81,8.94 9.89,7.6 16.19,18.84 17.75,31.62 0.39,3.59 0.39,7.02 0,10.48 l -0.18,1.64 1.36,0.9 c 4.07,2.73 9.6,10.18 11.89,18.63 l 1.47,5.43 3.32,-4.54 c 3.18,-4.38 6.77,-8.92 11.3,-14.3 l 0.88,-1.04 -0.32,-1.32 c -3.31,-14.02 -11.38,-30.76 -19.19,-39.79 -20.42,-23.58 -37.94,-26.33 -47.15,-27.26 2,-0.45 4.64,-0.8 7.92,-0.8 9.61,0 28.29,2.98 45.32,22.94 7.93,9.18 13.79,21.15 17.45,35.54 l 1.25,4.92 3.37,-3.79 c 3.56,-4 7.15,-7.79 10.74,-11.38 l 0.93,-0.93 -0.17,-1.32 c -2.26,-17.92 -10.92,-34.9 -23.73,-46.59 -12.02,-10.78 -23.1,-14.77 -29.73,-17.15 -0.5,-0.17 -1.02,-0.36 -1.52,-0.54 0.59,-0.05 1.27,-0.07 2.02,-0.07 9.52,0 23.96,3.9 36.04,14.87 11.78,10.65 19,24.31 21.46,40.58 l 0.79,5.15 3.75,-3.6 c 4.93,-4.73 9.52,-9.03 13.64,-12.57 l 0.97,-0.84 z m -91.59,71.15 -3.41,2.69 3.93,1.85 c 5.09,2.42 8.86,7.22 11.23,14.27 l 1.91,5.74 2.98,-5.28 c 3.93,-6.98 7.47,-12.79 11.11,-18.31 l 0.62,-0.94 -0.25,-1.12 c -1.84,-8.42 -6.4,-14.72 -10.05,-17.81 l -2.77,-2.34 -1.44,3.33 c -2.98,6.92 -7.77,13.11 -13.86,17.92 m 146.84,-132.1 c 0.28,-0.34 0.48,-0.52 0.57,-0.52 0.06,0 0.05,0.08 -0.03,0.27 2.51,2.88 11.55,11.96 26.21,26.37 0.09,0.06 0.16,0.14 0.21,0.21 -0.14,0.06 -0.32,0.13 -0.53,0.21 -20.75,7.8 -41.66,18.3 -57.34,28.8 l -5.7,3.82 6.77,1.09 c 24.09,3.82 47.43,31.88 52.07,62.54 2.45,15.77 3.71,39.74 -13.57,65.6 -2.82,4.15 -5.93,8.06 -9.18,11.85 l -22.04,4.75 c 37.61,-32.29 33.88,-72.4 33.1,-78.05 -4.81,-33.95 -27.85,-58.48 -56.01,-59.69 l -1.03,-0.05 -0.81,0.67 c -5.17,4.31 -10.12,8.79 -14.87,13.28 l -4.73,4.64 h 6.76 c 16.08,0 32.83,9.64 41.04,19.15 8.38,9.83 16.57,27.71 16.09,42.9 -0.03,0.98 -0.07,1.8 -0.14,2.52 -0.27,-0.77 -0.57,-1.67 -0.86,-2.74 -4.12,-14.76 -8.82,-25.67 -20.66,-37.72 -12.11,-12.45 -26.93,-18.76 -44.05,-18.76 -0.93,0 -3.79,0.1 -3.79,0.1 l -0.73,0.76 c -4.25,4.32 -8.36,8.74 -12.18,13.03 l -3.78,4.22 5.66,0.26 c 20.16,0.91 36.94,8.2 48.51,21.09 11.43,12.7 17.61,30.88 16.52,48.63 -0.04,0.68 -0.09,1.31 -0.14,1.89 -0.09,-0.5 -0.16,-1.04 -0.27,-1.63 -3.98,-28.2 -20,-62.26 -73.72,-64.3 l -1.35,-0.06 -0.84,1.07 c -3.5,4.37 -6.91,8.63 -10,12.98 l -2.89,4.05 4.98,0.2 c 19.75,0.77 37.16,9.19 49,23.7 10.21,12.53 14.87,28.39 12.93,43.82 -5.41,-28.46 -26.89,-60.83 -70.47,-60.88 h -1.43 l -0.8,1.19 c -3.71,5.53 -7.13,10.94 -10.32,16.34 l -2.47,4.16 6.04,-0.11 c 15.39,0 29.93,6.44 39.84,17.65 9.2,10.41 13.59,23.94 12.11,37.29 l -0.08,-0.5 c -3.47,-22.38 -20.92,-48.5 -59.44,-48.5 l -1.61,0.01 -0.76,1.4 c -3.06,5.68 -5.83,11.24 -8.38,16.57 l -1.93,3.97 5.86,-0.12 c 11.39,0 20.75,3.56 27.09,10.28 6.07,6.44 9.26,15.73 8.89,25.64 -0.02,-0.04 -0.05,-0.1 -0.07,-0.15 -6.47,-15.99 -13.65,-29.23 -36.25,-29.23 -2.13,0 -4.41,0.13 -6.86,0.38 l -1.6,0.16 -0.61,1.49 c -2.77,6.71 -5.16,12.95 -7.27,18.88 l -1.41,3.9 4.16,-0.32 c 0.66,-0.05 1.3,-0.08 1.94,-0.08 13.19,0 18.1,11.07 18.42,16.44 0.03,0.5 0.05,0.96 0.07,1.38 l -0.5,-0.83 c -4.98,-8.14 -10.25,-11.62 -17.64,-11.62 -2.04,0 -4.25,0.26 -6.77,0.8 l -1.56,0.34 -0.46,1.52 c -3.02,9.96 -5.09,18.37 -6.59,24.51 -0.05,0.28 -0.13,0.5 -0.18,0.78 -0.48,-0.39 -0.96,-0.77 -1.43,-1.15 0.2,-6.43 1.16,-15.45 3.89,-27.35 l 0.18,-0.79 -0.28,-0.76 c -3.59,-9.57 -9.68,-15.76 -17.16,-17.41 -2.07,-0.43 -4.11,-0.66 -6.27,-0.66 -1.43,0 -2.72,0.11 -3.8,0.2 1.12,-0.89 2.94,-1.93 5.58,-2.75 2.47,-0.82 4.81,-1.23 6.97,-1.23 8.18,0 12.05,5.7 13.64,9.09 l 3.07,6.56 1.97,-6.96 c 1.27,-4.51 2.95,-9.56 5.32,-15.92 l 0.41,-1.12 -0.55,-1.06 c -9.2,-17.5 -24.07,-26.82 -42.99,-26.94 -2.94,-0.01 -4.89,-0.15 -6.16,-0.34 1.41,-0.76 3.45,-1.63 5.7,-2.27 3.06,-0.86 6.59,-1.33 10.18,-1.33 11.77,0 27.73,5.07 33.98,19.36 l 2.52,5.77 2.44,-5.81 c 2.15,-5.15 4.75,-10.71 7.74,-16.54 l 0.46,-0.93 -0.28,-1.01 c -5,-18.3 -16.24,-22.3 -22.5,-23.05 l -0.66,-0.08 -0.61,0.24 c -2.61,0.98 -5.4,1.71 -8.36,2.16 -2.85,0.51 -5.68,0.76 -8.41,0.76 -11.93,0 -22.39,-4.78 -30.27,-13.82 l -4.18,-4.79 -0.53,6.33 c -0.59,6.83 0.23,17 2.43,30.22 4.34,26.07 10.95,48.12 17.8,65.99 -6.38,-6.58 -11.94,-12.92 -16.75,-18.97 -4.48,-14.61 -8.41,-30.6 -10.96,-47.52 -5.13,-33.65 0.66,-53.25 3.96,-60.13 0.02,0.05 0.04,0.12 0.06,0.17 0.69,1.65 1.67,3.98 3.19,7.27 7.16,15.69 22.02,26.23 36.95,26.23 1.77,0 3.55,-0.14 5.32,-0.44 20.89,-3.56 34.19,-21.54 31.64,-42.73 -1.12,-10.64 -5.96,-19.83 -13.66,-25.9 -6.85,-5.2 -14.86,-8.07 -22.57,-8.07 -1.57,0 -3.14,0.11 -4.68,0.35 -7.05,0.89 -12.98,2.88 -18.14,6.08 -5.18,3.3 -8.32,6.09 -10.4,7.94 -0.17,0.16 -0.37,0.33 -0.53,0.49 -0.02,-0.26 0.02,-0.68 0,-0.97 20.32,-31.14 42.73,-59.74 42.73,-59.74 l -0.55,-2.86 c 10.16,-6.55 21.43,-11 33.94,-13.06 4.66,-0.8 9.38,-1.21 13.99,-1.21 27.41,0 48.71,14.32 59.46,27.68 6.22,8.08 11.09,19.17 12.41,28.24 l 0.74,5.13 3.78,-3.56 c 12.95,-12.24 25.28,-27.91 42.09,-50.72"
         inkscape:connector-curvature="0" /><path
         id="path40"
         style="fill:#8a4d41;fill-opacity:1;fill-rule:nonzero;stroke:none"
         d="m 2758.16,4459.18 c -2.94,-2.08 -5.8,-4.17 -8.57,-6.23 7.77,-5.47 17.41,-10.78 29.02,-15.89 l 0.8,11.58 c -8.01,3.36 -15.02,6.81 -21.25,10.54"
         inkscape:connector-curvature="0" /><path
         id="path42"
         style="fill:#8a4d41;fill-opacity:1;fill-rule:nonzero;stroke:none"
         d="m 3298.23,4469.75 h 0.01 c 27.4,0 48.7,14.32 59.44,27.68 6.23,8.08 11.12,19.16 12.43,28.23 l 0.11,0.78 -10.4,1.9 c -2.04,-7.33 -5.85,-15.9 -10.66,-22.08 -11.92,-14.81 -30.79,-23.66 -50.51,-23.66 -3.92,0 -7.93,0.34 -11.91,1.01 -23.88,3.92 -42.71,16.55 -57.53,38.6 l -4.12,6.12 7.1,-2.03 c 1.4,-0.41 2.91,-0.72 4.29,-0.93 2.22,-0.29 4.42,-0.43 6.58,-0.43 10.09,0 19.35,3.08 26.81,8.93 3.42,2.63 6.23,5.82 8.75,9.23 l -9.97,1.82 c -1.31,-1.46 -2.66,-2.89 -4.2,-4.12 -6.83,-5.2 -14.84,-8.07 -22.57,-8.07 -1.57,0 -3.14,0.12 -4.69,0.35 -6,0.76 -11.07,2.5 -15.68,4.93 l 6.7,-34.03 c 14.78,-18.19 33.52,-29.31 56.03,-33.02 4.66,-0.8 9.38,-1.21 13.99,-1.21"
         inkscape:connector-curvature="0" /><path
         id="path44"
         style="fill:#8a4d41;fill-opacity:1;fill-rule:nonzero;stroke:none"
         d="m 3320.89,4510.03 c 7.08,6.4 12.29,13.99 16.04,22.47 l -7.07,1.29 c -4.04,-7.91 -9.39,-15.04 -15.77,-20.86 -12.03,-10.79 -23.11,-14.77 -29.72,-17.15 -0.51,-0.18 -1.04,-0.37 -1.54,-0.54 0.61,-0.05 1.27,-0.08 2.03,-0.08 9.52,0 23.97,3.91 36.03,14.87"
         inkscape:connector-curvature="0" /><path
         id="path46"
         style="fill:#8a4d41;fill-opacity:1;fill-rule:nonzero;stroke:none"
         d="m 3258.93,4513.54 c 9.61,0 28.28,2.98 45.32,22.94 0.46,0.54 0.85,1.17 1.3,1.73 l -9.03,1.64 c -19.7,-21.83 -36.56,-24.61 -45.51,-25.52 2.01,-0.45 4.65,-0.79 7.92,-0.79"
         inkscape:connector-curvature="0" /><path
         id="path48"
         style="fill:#8a4d41;fill-opacity:1;fill-rule:nonzero;stroke:none"
         d="m 3081.01,4384.15 1.7,-3.98 h -4.36 c -5.97,0 -10.87,-1.89 -14.5,-5.6 -4.16,-4.23 -5.57,-9.74 -5.53,-13.18 0.02,-0.54 0.03,-1.02 0.05,-1.47 l 0.47,0.92 c 4.95,9.71 10.64,13.66 19.64,13.66 1.57,0 3.27,-0.13 5.12,-0.37 l 1.66,-0.22 0.6,-1.57 c 3.96,-10.22 6.78,-18.89 8.85,-25.22 0.73,-2.24 1.45,-4.43 2.09,-6.29 0.02,6.32 -1.36,18.07 -6.67,35.22 l -0.25,0.81 0.23,0.83 c 3,10.32 8.91,17.29 16.65,19.61 3.87,1.16 7.13,1.3 9.56,1.3 l 0.98,-0.01 c -1.28,0.85 -3.26,1.8 -6.09,2.45 -2.1,0.52 -4.11,0.79 -5.98,0.79 -9.57,0 -13.54,-6.69 -15.05,-10.68 l -2.7,-7.12 -2.61,7.15 c -0.98,2.66 -2.14,5.56 -3.48,8.67 l -6.66,-2.27 c 2.25,-4.65 4.39,-9.16 6.28,-13.43"
         inkscape:connector-curvature="0" /><path
         id="path50"
         style="fill:#8a4d41;fill-opacity:1;fill-rule:nonzero;stroke:none"
         d="m 3138.39,4454.37 7.26,-28.54 c 1.13,7.68 2.04,15.56 2.63,23.61 0.52,6.84 0.58,12.94 0.43,18.65 l -9.88,1.93 c 0.1,-4.5 -0.05,-9.72 -0.44,-15.65"
         inkscape:connector-curvature="0" /><path
         id="path52"
         style="fill:#8a4d41;fill-opacity:1;fill-rule:nonzero;stroke:none"
         d="m 3026.46,4371.25 c 1.27,4 2.65,7.8 4.25,11.38 l -4.08,-1.38 c -0.43,-3.31 -0.63,-6.69 -0.22,-10.18 0.02,0.06 0.04,0.12 0.05,0.18"
         inkscape:connector-curvature="0" /><path
         id="path54"
         style="fill:#8a4d41;fill-opacity:1;fill-rule:nonzero;stroke:none"
         d="m 3089.7,4316.27 c 3.09,-2.22 9.44,-8.45 12.64,-11.91 l 0.58,0.4 c 1.78,1.93 5.9,7.4 9.42,13.83 7.12,12.78 24.57,52.72 32.59,102.84 l -11.05,-3.76 c -9.06,-51.99 -26.46,-85.4 -32.32,-95.53 l -1.87,-3.22 -2.61,2.65 c -15.3,15.57 -46.32,28.68 -92.18,38.98 -4.2,0.92 -8.29,1.95 -12.01,3.07 -9.68,2.79 -18.12,6.13 -25.82,9.74 l -36.51,7.89 c 19.09,-15.99 42.68,-27.23 69.59,-32.84 45.55,-9.34 68.97,-17.75 89.55,-32.14"
         inkscape:connector-curvature="0" /></g></g></svg>